<svg xmlns="http://www.w3.org/2000/svg" width="1400" height="900" viewBox="0 0 1400 900">
  <defs>
    <linearGradient id="sky" x1="0" y1="0" x2="0" y2="1">
      <stop offset="0%" stop-color="#0f172a"/>
      <stop offset="42%" stop-color="#2563eb"/>
      <stop offset="100%" stop-color="#bfdbfe"/>
    </linearGradient>
    <linearGradient id="mountain" x1="0" y1="0" x2="1" y2="1">
      <stop stop-color="#1e3a8a"/>
      <stop offset="1" stop-color="#7c3aed"/>
    </linearGradient>
    <pattern id="stars" width="90" height="90" patternUnits="userSpaceOnUse">
      <circle cx="18" cy="22" r="2" fill="#ffffff" fill-opacity=".35"/>
      <circle cx="70" cy="34" r="1.5" fill="#ffffff" fill-opacity=".24"/>
      <circle cx="45" cy="72" r="1.8" fill="#ffffff" fill-opacity=".22"/>
    </pattern>
  </defs>
  <rect width="1400" height="900" fill="url(#sky)"/>
  <rect width="1400" height="900" fill="url(#stars)"/>
  <circle cx="1110" cy="170" r="92" fill="#fde68a" fill-opacity=".9"/>
  <circle cx="1110" cy="170" r="150" fill="#fde68a" fill-opacity=".16"/>
  <path d="M0 620L180 420l160 150 170-250 240 300 170-210 190 220 160-170 130 160v280H0V620Z" fill="url(#mountain)" fill-opacity=".88"/>
  <path d="M0 710l220-190 210 160 170-120 230 190 170-150 210 170 190-150v280H0V710Z" fill="#0f172a" fill-opacity=".58"/>
  <path d="M0 790c220-48 383-48 520 0s306 48 520 0 306-48 360-28v138H0V790Z" fill="#082f49" fill-opacity=".72"/>
</svg>
